/vscmnt/brussel_pixiu_data/_data_brussel/112/vsc11236/PredSimResults/SUBJ11mtu3D/worker6.mot
version=1
nRows=4
nColumns=50
inDegrees=yes
endheader
                time	         pelvis_tilt	         pelvis_list	     pelvis_rotation	           pelvis_tx	           pelvis_ty	           pelvis_tz	       hip_flexion_r	     hip_adduction_r	      hip_rotation_r	        knee_angle_r	       ankle_angle_r	         mtp_angle_r	       hip_flexion_l	     hip_adduction_l	      hip_rotation_l	        knee_angle_l	       ankle_angle_l	         mtp_angle_l	    lumbar_extension	      lumbar_bending	     lumbar_rotation	 ercspn_r/activation	 intobl_r/activation	 extobl_r/activation	    abd_r/activation	    add_r/activation	hamstrings_r/activation	bifemsh_r/activation	glut_max_r/activation	iliopsoas_r/activation	rect_fem_r/activation	  vasti_r/activation	gastroc_r/activation	 soleus_r/activation	tib_ant_r/activation	 ercspn_l/activation	 intobl_l/activation	 extobl_l/activation	    abd_l/activation	    add_l/activation	hamstrings_l/activation	bifemsh_l/activation	glut_max_l/activation	iliopsoas_l/activation	rect_fem_l/activation	  vasti_l/activation	gastroc_l/activation	 soleus_l/activation	tib_ant_l/activation	
          0.65014676	         -3.56785619	          0.68309446	         -5.43479803	          0.71516144	          0.94447032	          0.00955929	        -13.39832233	         -1.93250018	         -0.39725066	         -9.56154671	         12.94012266	         25.41712121	         31.65645205	         -2.01561155	         -2.59275511	         -9.95471511	          4.24257456	          0.22119368	        -13.75530740	          1.31707405	          1.84532026	          0.01000261	          0.01000127	          0.01000186	          0.03948186	          0.01000163	          0.01780901	          0.26244664	          0.01726495	          0.06438594	          0.01000702	          0.01000176	          0.15315806	          0.26639926	          0.01000148	          0.04774030	          0.21927829	          0.05539687	          0.01134656	          0.16251103	          0.05634484	          0.11627166	          0.04533744	          0.06104784	          0.02980884	          0.01027991	          0.01000213	          0.01000049	          0.42311499	
          0.66314970	         -3.64457044	          0.75626370	         -5.52631052	          0.73323182	          0.94231135	          0.00835188	        -13.94377965	         -2.18675868	         -0.70172196	        -10.40617500	         12.39394862	         27.18660328	         31.28225324	         -1.82328891	         -2.91503265	        -10.84728367	          3.76620687	          0.22975764	        -13.32189672	          0.89474008	          2.19616498	          0.02548230	          0.01000600	          0.01000995	          0.03244966	          0.01217107	          0.03543442	          0.21570625	          0.01606447	          0.05292552	          0.01000428	          0.01000539	          0.12587915	          0.25038619	          0.01000055	          0.03923837	          0.18022234	          0.04552997	          0.01000137	          0.15955838	          0.05050623	          0.09556574	          0.10432306	          0.05017446	          0.02450000	          0.01000999	          0.01480781	          0.01498952	          0.43261281	
          0.67615263	         -3.70426903	          0.83203526	         -5.60236206	          0.75161528	          0.94034663	          0.00708695	        -14.36390067	         -2.45257697	         -1.01729975	        -11.52175982	         11.73888409	         29.02035239	         30.87350134	         -1.66052115	         -3.17163734	        -11.93498949	          3.30878069	          0.21214880	        -12.86245334	          0.46454665	          2.54521316	          0.02547619	          0.01000101	          0.01000350	          0.02666998	          0.01000506	          0.02912507	          0.17729038	          0.01320376	          0.04803217	          0.01001049	          0.01000191	          0.10345845	          0.22907788	          0.01000067	          0.04839312	          0.14812270	          0.03742051	          0.08084128	          0.17418545	          0.04383765	          0.07854768	          0.12785504	          0.04123778	          0.02013674	          0.01000785	          0.01217108	          0.01231988	          0.48713815	
          0.68915557	         -3.75021343	          0.88689191	         -5.65231830	          0.76998944	          0.93884491	          0.00575026	        -14.54470787	         -2.70282837	         -1.34586210	        -13.05553757	         10.91915771	         30.94214237	         30.53435530	         -1.52619576	         -3.44386437	        -13.09964201	          2.61830385	          0.18713475	        -12.41661834	          0.05557139	          2.88323614	          0.06493695	          0.01000206	          0.01000275	          0.02191973	          0.02105029	          0.03555749	          0.14571505	          0.01179929	          0.03948293	          0.01000539	          0.01000313	          0.08503110	          0.19234754	          0.01000056	          0.04755197	          0.12174021	          0.03075548	          0.12034740	          0.21380434	          0.04290427	          0.06456053	          0.12329978	          0.03389287	          0.01655071	          0.06031448	          0.01000488	          0.01012590	          0.53392949	
